<svg xmlns="http://www.w3.org/2000/svg" width="113" height="21" viewBox="0 0 113 21" fill="none">
<g clip-path="url(#clip0_376_932)">
<path d="M0.517578 16.4478C0.517578 18.5534 2.21552 20.2596 4.31097 20.2596C6.40642 20.2596 8.10436 18.5534 8.10436 16.4478C8.10436 14.3422 6.40642 12.636 4.31097 12.636C2.21552 12.636 0.517578 14.3448 0.517578 16.4478Z" fill="#E4002B"></path>
<path d="M0.517578 4.70005C0.517578 6.80568 2.21552 8.51187 4.31097 8.51187C6.40642 8.51187 8.10436 6.80568 8.10436 4.70005C8.10436 2.59442 6.40378 0.890869 4.31097 0.890869C2.21815 0.890869 0.517578 2.59706 0.517578 4.70005Z" fill="#94D500"></path>
<path d="M31.3361 20.0559H25.9448L20.5245 11.5567V20.0559H15.6992V1.09204H20.5245V9.06751L25.6737 1.09204H31.065L25.0813 10.3055L31.3361 20.0559Z" fill="#E4002B"></path>
<path d="M37.1882 20.0559L31.0967 1.09204H36.38L40.0471 14.1517L43.7404 1.09204H49.0238L42.9323 20.0559H37.1882Z" fill="#E4002B"></path>
<path d="M52.6642 20.0559H47.4414L53.4566 1.09204H59.5297L65.7739 20.0559H60.8065L56.6077 6.7L52.6642 20.0559Z" fill="#E4002B"></path>
<path d="M73.0979 20.4633C71.1024 20.4633 69.6599 20.04 68.3489 19.1909C67.0353 18.3418 66.1192 17.1964 65.6006 15.7521L69.7257 13.3422C70.4259 15.022 71.4552 15.8605 73.2348 15.8605C74.7089 15.8605 75.446 15.4399 75.446 14.5987C75.446 14.0432 75.0222 13.5962 74.1719 13.2549C73.8139 13.1068 73.2347 12.8555 72.0185 12.501C70.2943 11.9958 68.928 11.2869 67.9198 10.3743C66.9142 9.46164 66.4088 8.19191 66.4088 6.56772C66.4088 4.81655 67.0327 3.39869 68.2831 2.31413C69.5309 1.23222 70.8813 0.689941 72.7504 0.689941C74.3299 0.689941 75.733 1.06028 76.9544 1.80095C78.1759 2.54163 79.1104 3.6156 79.758 5.02553L75.7145 7.40891C75.1222 6.00163 74.143 5.29535 72.7767 5.29535C72.2002 5.29535 71.9764 5.41174 71.6816 5.64981C71.3841 5.88524 71.2367 6.18415 71.2367 6.5492C71.2367 6.96715 71.4578 7.32162 71.8975 7.6126C72.3371 7.90358 72.982 8.23952 74.2561 8.62044C75.1538 8.94581 75.8856 9.21034 76.4543 9.41667C77.0229 9.623 77.6389 9.94572 78.3049 10.3875C78.9709 10.8292 79.4658 11.3953 79.7896 12.091C80.1134 12.7841 80.2766 13.5988 80.2766 14.5379C80.2766 16.4002 79.6211 17.8524 78.3075 18.8999C76.9966 19.9475 75.2618 20.4712 73.1058 20.4712" fill="#E4002B"></path>
<path d="M87.0783 15.5061H94.3834V20.0559H82.2529V1.09204H94.2491V5.61809H87.0783V8.24483H93.5752V12.7153H87.0783V15.5061Z" fill="#E4002B"></path>
<path d="M102.102 5.56254V9.81612H104.771C105.364 9.83464 105.851 9.64418 106.227 9.24739C106.606 8.8506 106.793 8.33477 106.793 7.70255C106.793 7.07034 106.604 6.55716 106.227 6.15772C105.851 5.76093 105.364 5.56254 104.771 5.56254H102.102ZM107.117 20.0559L103.829 13.9348H102.105V20.0559H97.2793V1.09204H104.829C106.751 1.09204 108.365 1.71103 109.668 2.94902C110.971 4.187 111.621 5.753 111.621 7.64965C111.621 8.78711 111.334 9.83199 110.758 10.779C110.181 11.7286 109.399 12.4825 108.412 13.0407L112.295 20.0559H107.119H107.117Z" fill="#E4002B"></path>
</g>
<defs>
<clipPath id="clip0_376_932">
<rect width="111.777" height="19.776" fill="white" transform="translate(0.517578 0.687256)"></rect>
</clipPath>
</defs>
</svg>