<svg data-v-0dd9719b="" version="1.0" width="100%" height="100%" viewBox="59.76 89.639 221.322 83.348" preserveAspectRatio="xMidYMid meet" color-interpolation-filters="sRGB" style="margin: 0px;" xmlns="http://www.w3.org/2000/svg">
  <g data-v-0dd9719b="" fill="#FF7701" class="basesvg" transform="translate(80.73999786376953,99.93875122070312)">
    <g data-gra="path-name" fill-rule="" class="tp-name" transform="translate(0,0)">
      <g transform="scale(1)">
        <g>
          <path d="M0 0L7.38-34.73 30.41-34.73 29.54-30.57 18.38-30.57 16.08-20.02 25.43-20.02 24.56-15.92 15.21-15.92 12.69-4.21 23.85-4.21 23.03 0 0 0ZM52.73-9.02L51.14-1.31Q48.84-0.38 46.3 0.03 43.76 0.44 40.53 0.44L40.53 0.44Q37.68 0.44 35.31-0.14 32.93-0.71 31.18-1.97 29.43-3.23 28.44-5.22 27.46-7.22 27.46-10.06L27.46-10.06Q27.46-13.02 28.47-15.56 29.48-18.1 31.53-20.02 33.58-21.93 36.75-23.03 39.93-24.12 44.3-24.12L44.3-24.12Q47.86-24.12 50.48-23.55 53.11-22.97 54.8-20.95L54.8-20.95 53.27-13.95 45.83-13.95Q45.89-14.88 45.94-15.59 46-16.3 46-17.17L46-17.17Q46-18.92 45.62-19.66 45.23-20.4 44.36-20.4L44.36-20.4Q42.83-20.4 41.68-18.9 40.53-17.39 39.79-15.29 39.05-13.18 38.7-10.86 38.34-8.53 38.34-6.89L38.34-6.89Q38.34-6.29 38.4-5.66 38.45-5.03 38.64-4.48 38.83-3.94 39.16-3.61 39.49-3.28 40.09-3.28L40.09-3.28Q40.64-3.28 41.35-3.61 42.06-3.94 42.72-4.62 43.37-5.31 43.97-6.4 44.58-7.49 44.9-9.02L44.9-9.02 52.73-9.02ZM72.09-6.51L75.75-23.52 86.91-23.52 81.88 0 73.02 0 72.03-3.5 71.7-3.5Q70.28-1.8 67.85-0.68 65.41 0.44 62.95 0.44L62.95 0.44Q59.67 0.44 57.81-1.23 55.95-2.9 55.95-5.58L55.95-5.58Q55.95-6.95 56.42-9 56.88-11.05 57.27-12.85L57.27-12.85 59.56-23.52 70.67-23.52 67.93-10.72Q67.82-10.28 67.71-9.68 67.6-9.08 67.49-8.51 67.38-7.93 67.3-7.41 67.22-6.89 67.22-6.56L67.22-6.56Q67.22-5.74 67.58-5.17 67.93-4.59 68.86-4.59L68.86-4.59Q69.85-4.59 70.72-5.25 71.6-5.91 72.09-6.51L72.09-6.51ZM120.88-26.8L120.88-26.8Q120.88-25.21 120.41-23.96 119.95-22.7 119.12-21.71 118.3-20.73 117.21-19.96 116.12-19.2 114.8-18.54L114.8-18.54Q115.41-18.32 116.23-17.86 117.05-17.39 117.81-16.57 118.58-15.75 119.1-14.47 119.62-13.18 119.62-11.32L119.62-11.32Q119.62-8.86 118.58-6.78 117.54-4.7 115.49-3.2 113.44-1.7 110.46-0.85 107.47 0 103.59 0L103.59 0 87.35 0 94.73-34.73 109.12-34.73Q111.25-34.73 113.35-34.43 115.46-34.13 117.13-33.25 118.8-32.38 119.84-30.82 120.88-29.26 120.88-26.8ZM103.48-20.18L106-20.18Q107.2-20.18 108.05-20.89 108.9-21.6 109.44-22.67 109.99-23.74 110.26-24.97 110.54-26.2 110.54-27.18L110.54-27.18Q110.54-28.77 109.8-29.89 109.06-31.01 107.47-31.01L107.47-31.01 105.83-31.01 103.48-20.18ZM99.87-3.45L102.06-3.45Q103.7-3.45 104.79-4.38 105.89-5.31 106.6-6.67 107.31-8.04 107.61-9.54 107.91-11.05 107.91-12.2L107.91-12.2Q107.91-14.11 107.12-15.23 106.33-16.35 104.58-16.35L104.58-16.35 102.55-16.35 99.87-3.45ZM138.1-6.51L141.77-23.52 152.93-23.52 147.89 0 139.03 0 138.05-3.5 137.72-3.5Q136.3-1.8 133.87-0.68 131.43 0.44 128.97 0.44L128.97 0.44Q125.69 0.44 123.83-1.23 121.97-2.9 121.97-5.58L121.97-5.58Q121.97-6.95 122.43-9 122.9-11.05 123.28-12.85L123.28-12.85 125.58-23.52 136.68-23.52 133.95-10.72Q133.84-10.28 133.73-9.68 133.62-9.08 133.51-8.51 133.4-7.93 133.32-7.41 133.24-6.89 133.24-6.56L133.24-6.56Q133.24-5.74 133.59-5.17 133.95-4.59 134.88-4.59L134.88-4.59Q135.86-4.59 136.74-5.25 137.61-5.91 138.1-6.51L138.1-6.51ZM177.27-16.63L170.15-16.63Q170.21-16.9 170.26-17.17 170.32-17.45 170.32-17.78L170.32-17.78Q170.32-18.76 169.96-19.61 169.61-20.46 168.57-20.46L168.57-20.46Q167.64-20.46 166.71-19.66 165.78-18.87 165.78-17.56L165.78-17.56Q165.78-16.68 166.24-16.16 166.71-15.64 167.47-15.31 168.24-14.99 169.2-14.77 170.15-14.55 171.08-14.33L171.08-14.33Q172.4-14 173.57-13.54 174.75-13.07 175.68-12.31 176.61-11.54 177.16-10.42 177.7-9.3 177.7-7.66L177.7-7.66Q177.7-5.36 176.64-3.8 175.57-2.24 173.68-1.29 171.8-0.33 169.25 0.05 166.71 0.44 163.81 0.44L163.81 0.44Q159.38 0.44 156.48-0.22 153.58-0.88 152.43-1.48L152.43-1.48 153.58-6.95 160.97-6.95Q160.91-6.67 160.91-6.43 160.91-6.18 160.91-5.91L160.91-5.91Q160.91-4.65 161.49-3.91 162.06-3.17 163.48-3.17L163.48-3.17Q165.07-3.17 165.75-4.07 166.44-4.98 166.44-5.74L166.44-5.74Q166.44-6.51 165.86-7.08 165.29-7.66 164.41-8.07 163.54-8.48 162.47-8.78 161.4-9.08 160.42-9.35L160.42-9.35Q159.71-9.52 158.81-9.9 157.9-10.28 157.08-10.99 156.26-11.7 155.72-12.83 155.17-13.95 155.17-15.64L155.17-15.64Q155.17-18.05 156.34-19.66 157.52-21.28 159.41-22.26 161.29-23.25 163.67-23.68 166.05-24.12 168.46-24.12L168.46-24.12Q171.47-24.12 174.15-23.57 176.83-23.03 178.52-22.15L178.52-22.15 177.27-16.63Z" transform="translate(0, 34.72999954223633)"></path>
        </g>
      </g>
    </g>
  </g>
  <text style="fill: rgb(51, 51, 51); font-family: Arial, sans-serif; font-size: 29px; font-weight: 700; white-space: pre;" transform="matrix(0.79613, 0, 0, 0.764706, 31.445904, 37.312496)" x="145.256" y="164.305">PRO</text>
</svg>